name D:\school\WTK\thesis\model\3dpredictsim\Results\Batchsim_tmt_linear_v2\Pog_s1_tmt_aCst_d02_k800_ig24.mot
datacolumns 128
datarows 4
range 0.00000000 0.03161023
endheader
time	pelvis_tilt	pelvis_list	pelvis_rotation	pelvis_tx	pelvis_ty	pelvis_tz	hip_flexion_l	hip_adduction_l	hip_rotation_l	hip_flexion_r	hip_adduction_r	hip_rotation_r	knee_angle_l	knee_angle_r	ankle_angle_l	ankle_angle_r	subtalar_angle_l	subtalar_angle_r	tmt_angle_l	tmt_angle_r	mtp_angle_l	mtp_angle_r	lumbar_extension	lumbar_bending	lumbar_rotation	arm_flex_l	arm_add_l	arm_rot_l	arm_flex_r	arm_add_r	arm_rot_r	elbow_flex_l	elbow_flex_r	pro_sup_l	pro_sup_r	glut_med1_l/activation	glut_med2_l/activation	glut_med3_l/activation	glut_min1_l/activation	glut_min2_l/activation	glut_min3_l/activation	semimem_l/activation	semiten_l/activation	bifemlh_l/activation	bifemsh_l/activation	sar_l/activation	add_long_l/activation	add_brev_l/activation	add_mag1_l/activation	add_mag2_l/activation	add_mag3_l/activation	tfl_l/activation	pect_l/activation	grac_l/activation	glut_max1_l/activation	glut_max2_l/activation	glut_max3_l/activation	iliacus_l/activation	psoas_l/activation	quad_fem_l/activation	gem_l/activation	peri_l/activation	rect_fem_l/activation	vas_med_l/activation	vas_int_l/activation	vas_lat_l/activation	med_gas_l/activation	lat_gas_l/activation	soleus_l/activation	tib_post_l/activation	flex_dig_l/activation	flex_hal_l/activation	tib_ant_l/activation	per_brev_l/activation	per_long_l/activation	per_tert_l/activation	ext_dig_l/activation	ext_hal_l/activation	ercspn_l/activation	intobl_l/activation	extobl_l/activation	glut_med1_r/activation	glut_med2_r/activation	glut_med3_r/activation	glut_min1_r/activation	glut_min2_r/activation	glut_min3_r/activation	semimem_r/activation	semiten_r/activation	bifemlh_r/activation	bifemsh_r/activation	sar_r/activation	add_long_r/activation	add_brev_r/activation	add_mag1_r/activation	add_mag2_r/activation	add_mag3_r/activation	tfl_r/activation	pect_r/activation	grac_r/activation	glut_max1_r/activation	glut_max2_r/activation	glut_max3_r/activation	iliacus_r/activation	psoas_r/activation	quad_fem_r/activation	gem_r/activation	peri_r/activation	rect_fem_r/activation	vas_med_r/activation	vas_int_r/activation	vas_lat_r/activation	med_gas_r/activation	lat_gas_r/activation	soleus_r/activation	tib_post_r/activation	flex_dig_r/activation	flex_hal_r/activation	tib_ant_r/activation	per_brev_r/activation	per_long_r/activation	per_tert_r/activation	ext_dig_r/activation	ext_hal_r/activation	ercspn_r/activation	intobl_r/activation	extobl_r/activation	
          0.00000000	         -2.40937658	          0.98209206	          4.52631722	          0.00000000	          0.87247497	         -0.00160566	        -18.14281162	          1.41156645	          5.44728670	         26.23020888	         -0.31020752	         -2.41765581	         -5.44482430	         -8.10410796	         -7.93419826	          5.93872803	          7.58961344	          4.12624680	          1.34201030	          0.04550354	         26.02364820	         -0.10211997	          0.18120252	         -3.14710970	         -1.58500680	          2.92233664	        -13.46200428	          9.80116034	         -8.93318317	        -13.45063109	         11.51866657	         25.37850027	         17.88067271	         86.51662706	         86.51662706	          0.29689054	          0.09080774	          0.08123824	          0.27532467	          0.15517326	          0.09136819	          0.05000694	          0.05000080	          0.05000069	          0.05000106	          0.09550181	          0.06186568	          0.05000143	          0.05000199	          0.05000687	          0.05000336	          0.21922555	          0.05001559	          0.05000335	          0.05002993	          0.05001562	          0.05000999	          0.33588857	          0.62414916	          0.05001264	          0.05000620	          0.06910356	          0.25581631	          0.09741407	          0.08568042	          0.05091314	          0.18491241	          0.26491707	          0.21729350	          0.21038314	          0.18839064	          0.26013040	          0.05000015	          0.08886798	          0.14042348	          0.05000101	          0.05000033	          0.05000090	          0.05000007	          0.05000012	          0.05000023	          0.12648792	          0.05000546	          0.09838118	          0.05000137	          0.05000192	          0.05001601	          0.05878083	          0.05878133	          0.05878125	          0.05000184	          0.05000668	          0.05182883	          0.05878323	          0.18961167	          0.14464897	          0.13153303	          0.05000955	          0.05004268	          0.05877917	          0.06910001	          0.11107632	          0.13417677	          0.05000122	          0.05000111	          0.12673571	          0.05000593	          0.06480094	          0.05000222	          0.08215892	          0.10237235	          0.06294698	          0.05878047	          0.05878003	          0.05878058	          0.05000054	          0.05000877	          0.05507389	          0.47904474	          0.27635485	          0.16546317	          0.27955151	          0.49788337	          0.28087810	          0.05261299	          0.14479015	          0.14232647	
          0.01053674	         -2.39532516	          1.03473332	          4.68170032	          0.01630466	          0.87121442	         -0.00148280	        -17.98488748	          1.28386842	          5.20479953	         25.72659693	         -0.17940374	         -2.19011503	         -7.48618199	         -8.17991270	         -8.56314691	          5.33355238	          8.57118820	          3.69771378	          1.24366407	          0.06150931	         26.87591165	         -0.08331949	          0.37876339	         -2.97133106	         -1.63467907	          2.70757664	        -13.47943556	         10.00684149	        -10.01289094	        -13.44971824	         11.37460044	         26.18023046	         17.88334387	         86.51662706	         86.51662706	          0.25254154	          0.07724301	          0.06910304	          0.23419748	          0.13199378	          0.07771985	          0.05000635	          0.05000084	          0.05000092	          0.05000124	          0.08123729	          0.13685991	          0.11616066	          0.06007168	          0.05001371	          0.05000296	          0.18647803	          0.10271136	          0.05172383	          0.05000606	          0.05000376	          0.05000420	          0.28571391	          0.53091492	          0.05666533	          0.05878416	          0.05878153	          0.21760267	          0.13263732	          0.15516667	          0.15490745	          0.15729033	          0.22534404	          0.19179165	          0.17895758	          0.16025196	          0.22127388	          0.05000011	          0.07559359	          0.13585185	          0.05000054	          0.05000015	          0.05000061	          0.05000087	          0.06910366	          0.05000492	          0.10759350	          0.05812358	          0.08369242	          0.05877867	          0.05084504	          0.05000683	          0.05000031	          0.05000094	          0.05000070	          0.05000067	          0.05003088	          0.05000151	          0.05000319	          0.16129879	          0.19089349	          0.14295936	          0.05000102	          0.05000572	          0.05000164	          0.05878157	          0.13818324	          0.17250140	          0.05000112	          0.05000135	          0.22030721	          0.11227392	          0.17066508	          0.06911045	          0.24086717	          0.26213502	          0.19783044	          0.05000003	          0.05000006	          0.05000001	          0.05000033	          0.05000687	          0.05000098	          0.54727611	          0.29309357	          0.17888739	          0.46303306	          0.54305527	          0.27391432	          0.05000012	          0.12316150	          0.12106583	
          0.02107349	         -2.37487639	          1.07288214	          4.81539768	          0.03287172	          0.86987669	         -0.00136978	        -17.73364144	          1.14508181	          4.95438478	         25.11984569	         -0.07552949	         -1.92657545	         -9.70529454	         -8.81871857	         -9.20407543	          4.65037096	          9.54307591	          3.25014588	          1.10543151	         -0.04595959	         27.38281050	         -0.12991959	          0.59521238	         -2.76656294	         -1.67501398	          2.43164951	        -13.49975371	         10.18559878	        -11.10683323	        -13.45567406	         11.25607675	         26.96777583	         17.89180044	         86.51662706	         86.51662706	          0.27440884	          0.06570458	          0.05878059	          0.19921415	          0.11227682	          0.06611026	          0.05080566	          0.05000231	          0.05000291	          0.05000056	          0.06910290	          0.15300781	          0.23179498	          0.05879340	          0.05871468	          0.08517564	          0.15862232	          0.08737106	          0.05000657	          0.05036486	          0.05797125	          0.05877426	          0.24303425	          0.47640903	          0.05875608	          0.05000591	          0.05000104	          0.18509733	          0.12726871	          0.13199101	          0.13177143	          0.13379441	          0.19168234	          0.16314195	          0.15222521	          0.13631434	          0.18822062	          0.05000025	          0.09431689	          0.14502821	          0.05000066	          0.05000341	          0.05000121	          0.05000010	          0.05878108	          0.06910140	          0.27804132	          0.05000095	          0.26361652	          0.05000199	          0.05000148	          0.25968908	          0.07370278	          0.05000116	          0.06500535	          0.05000038	          0.05000112	          0.06910171	          0.09548415	          0.13720711	          0.16238072	          0.14383092	          0.05001352	          0.05880672	          0.05002686	          0.05000195	          0.11754342	          0.14673398	          0.05002474	          0.05000416	          0.18739803	          0.09550292	          0.17609836	          0.05878681	          0.20488675	          0.22297760	          0.16827880	          0.05878171	          0.05878237	          0.05878073	          0.05878010	          0.05878090	          0.05878123	          0.46552434	          0.27641192	          0.15216641	          0.39386570	          0.54037647	          0.23299730	          0.05000009	          0.10476374	          0.10298110	
          0.03161023	         -2.35079660	          1.09644227	          4.92465182	          0.04951480	          0.86844154	         -0.00125082	        -17.38753957	          0.99974004	          4.69846881	         24.40091466	          0.02334007	         -1.65226075	        -12.08626160	         -9.51008207	         -9.76881678	          4.14068546	         10.47101938	          2.78347062	          0.91062959	         -0.01459808	         27.35608345	         -0.15098889	          0.81307550	         -2.53675097	         -1.70689766	          2.12561033	        -13.52665995	         10.35596877	        -12.17459300	        -13.46938961	         11.18861871	         27.72998136	         17.88338056	         86.51662706	         86.51662706	          0.23341844	          0.05588975	          0.05000014	          0.17923834	          0.09550518	          0.05623494	          0.07020829	          0.05000071	          0.05000059	          0.05000078	          0.05878299	          0.18132305	          0.24605346	          0.05001372	          0.05000757	          0.07245458	          0.13492775	          0.07436327	          0.05000168	          0.05000242	          0.05000167	          0.05000197	          0.20673005	          0.42940832	          0.05000020	          0.05000080	          0.05000042	          0.15744763	          0.10825936	          0.11227549	          0.11209001	          0.11380829	          0.16304901	          0.13877192	          0.12948620	          0.11595247	          0.16010491	          0.05164842	          0.10065913	          0.12336434	          0.09555327	          0.16033164	          0.05710726	          0.07735274	          0.05000043	          0.05877914	          0.30080152	          0.26137593	          0.34578877	          0.15564634	          0.16832771	          0.22089970	          0.06330283	          0.08924494	          0.06926016	          0.08115416	          0.05877482	          0.05877960	          0.08122095	          0.11671203	          0.17861828	          0.17160046	          0.05000102	          0.05002371	          0.08122600	          0.20743477	          0.17977573	          0.17847117	          0.05000070	          0.05000072	          0.15940494	          0.08123794	          0.14979551	          0.05000532	          0.17428108	          0.18966957	          0.14314159	          0.05000098	          0.05000158	          0.05000011	          0.05000004	          0.05000094	          0.05000086	          0.59190672	          0.29640304	          0.15384978	          0.64396297	          0.61511998	          0.38268819	          0.05000041	          0.08911421	          0.08759786	
